<svg id="Layer_1" data-name="Layer 1" xmlns="http://www.w3.org/2000/svg" viewBox="0 0 900.81 239.72"><defs><style>.cls-1{fill:#006b3f;}</style></defs><path class="cls-1" d="M110.46,76l-25,93.31C82,181.76,72.63,187.9,56.7,187.9H22.53L60.92,44.1H86.46C108.15,44.1,116.22,54.66,110.46,76ZM82.62,62.34h-7.3L46.52,169.66h9.41c6.72,0,11.14-3.45,13.06-10.56L91.45,74.82C93.56,66.56,90.68,62.34,82.62,62.34Z"/><path class="cls-1" d="M114.7,187.9H101.26L128.13,87.25h13.44Z"/><path class="cls-1" d="M192.77,109.55,187,131.46c-2.68,10.35-10.34,15.18-23.11,15.18h-8.2l-11,41.26H131.22l11-41.26h-8.19l3.36-12.76h8.19l12.5-46.63h18C191.3,87.25,196.8,94.5,192.77,109.55ZM173.29,100h-5.11L159,133.88h6.59c4.84,0,7.79-2.42,9.27-7.8l4.7-17.33C181.22,102.83,179.2,100,173.29,100Z"/><path class="cls-1" d="M203.52,187.9c-15.05,0-20.69-7.39-16.66-22.31l21-78.34h13.44l-21.1,79.15c-1.47,5.78.54,8.73,6.05,8.73h16l-3.36,12.77Z"/><path class="cls-1" d="M286.17,107.94,268.3,175.4c-2.42,9.14-9.41,13.84-20.3,13.84-15.85,0-22.17-7.52-18.27-22l18-67.46c2.41-9.13,9.27-13.84,20.15-13.84C283.75,85.9,290.07,93.43,286.17,107.94Zm-13-1.21c1.35-5-.67-7.52-5.91-7.52-3.9,0-6.45,1.88-7.39,5.64L242.9,168.41c-1.35,5,.67,7.53,5.78,7.53,3.89,0,6.45-1.88,7.52-5.64Z"/><path class="cls-1" d="M355.51,107.94l-21.23,80H320.84l21.64-81.17c1.34-5,.4-7.52-2.83-7.52-2.68,0-4.43,1.47-5.1,4.3L312,187.9H298.53l21.64-81.17c1.34-5,.27-7.52-3.09-7.52-2.69,0-4.44,1.47-5.11,4.3L289.66,187.9H276.22l23.52-88.16c2.42-9.13,8.2-13.84,16.66-13.84,7.93,0,12.23,3.63,12.77,10.75,3.36-7.12,8.47-10.75,15.19-10.75C355.51,85.9,359.41,93.43,355.51,107.94Z"/><path class="cls-1" d="M410.47,107.94l-21.36,80H375.67l7.52-28.22H369.35l-7.52,28.22H348.39l7.52-28.22h-8.33l3.36-12.77h8.47L372,99.74c2.42-9.13,9.41-13.84,20.16-13.84C408.05,85.9,414.37,93.43,410.47,107.94ZM391,99.21q-5.44,0-6.86,5.64l-11.29,42.06h13.85l10.75-40.18C398.78,101.76,396.76,99.21,391,99.21Z"/><path class="cls-1" d="M456.16,187.9H442.72L469.6,87.25H483Z"/><path class="cls-1" d="M512.87,175.4c-2.42,8.74-9.81,13.84-20.16,13.84-15.18,0-22-8.19-18.41-22l18-67.46c2.42-9.13,9.41-13.84,20.29-13.84,15.59,0,21.77,7.53,18.14,22l-1.34,5.38H516.1l1.61-6.59c1.21-5-.81-7.52-5.78-7.52-3.9,0-6.59,1.88-7.53,5.64l-16.93,63.56c-1.21,4.71.94,7.53,5.91,7.53a7.38,7.38,0,0,0,7.4-5.64l2.42-8.47h13.43Z"/><path class="cls-1" d="M641.92,76l-25,93.31c-3.45,12.48-12.86,18.62-28.8,18.62H554l38.4-143.8h25.53C639.62,44.1,647.68,54.66,641.92,76ZM614.08,62.34h-7.29L578,169.66h9.41c6.72,0,11.13-3.45,13.05-10.56l22.46-84.28C625,66.56,622.15,62.34,614.08,62.34Z"/><path class="cls-1" d="M646.16,187.9H632.72L659.6,87.25H673Z"/><path class="cls-1" d="M724.37,109.55,721,122.32c-1.88,7-6.31,11.15-13.57,12.63,6.18,2.29,8.2,7,6.32,14.25l-10.22,38.7h-13.7l10.07-37.49c1.62-6,.54-9-3.36-9h-8.06l-12.36,46.5H662.69l12.36-46.5h-8.2l3.37-12.76h8.33l11-41.39h18.14C722.76,87.25,728.27,94.64,724.37,109.55ZM704.75,100h-5.11L692,128.64h7.93c3.9,0,6.45-2.15,7.66-6.72l3.5-13.17C712.55,103,710.53,100,704.75,100Z"/><path class="cls-1" d="M751.92,107.94l-5.51,20.7h19.75L762.8,141.4H743.05l-6.72,25c-1.48,5.78.54,8.73,6,8.73h16L755,187.9H739.69c-15.05,0-20.69-7.39-16.66-22.31l6.45-24.19h-8.2l3.36-12.76H733l7.53-28.36c2.42-8.73,9-13,20-13h21.37l-3.63,13.3H760.92C756.22,100.55,753.26,103,751.92,107.94Z"/><path class="cls-1" d="M807.69,175.4c-2.42,8.74-9.81,13.84-20.16,13.84-15.19,0-22-8.19-18.41-22l18-67.46c2.42-9.13,9.4-13.84,20.29-13.84,15.59,0,21.77,7.53,18.14,22l-1.34,5.38H810.91l1.62-6.59c1.21-5-.81-7.52-5.78-7.52-3.9,0-6.59,1.88-7.53,5.64l-16.93,63.56c-1.21,4.71.94,7.53,5.91,7.53a7.36,7.36,0,0,0,7.39-5.64l2.42-8.47h13.44Z"/><polygon class="cls-1" points="872.21 99.96 875.55 87.25 834.97 87.25 831.62 99.96 872.21 99.96"/><polygon class="cls-1" points="843.01 108.12 821.66 187.9 835.1 187.9 856.45 108.12 843.01 108.12"/><polygon class="cls-1" points="459.13 99.98 462.48 87.25 421.89 87.25 418.54 99.98 459.13 99.98"/><polygon class="cls-1" points="429.93 108.14 408.59 187.9 422.03 187.9 443.37 108.14 429.93 108.14"/></svg>