<?xml version="1.0" encoding="utf-8"?>
<!-- Generator: Adobe Illustrator 24.2.1, SVG Export Plug-In . SVG Version: 6.00 Build 0)  -->
<svg version="1.1" id="Layer_1" xmlns="http://www.w3.org/2000/svg" xmlns:xlink="http://www.w3.org/1999/xlink" x="0px" y="0px"
	 viewBox="0 0 45 53" style="enable-background:new 0 0 45 53;" xml:space="preserve">
<style type="text/css">
	.st0{fill:#006B3F;}
</style>
<g>
	<path class="st0" d="M42.4,7h-4.5V2.5c0-1.4-1.2-2.5-2.6-2.5H2.6C1.2,0,0,1.1,0,2.5v40.7c0,1.4,1.2,2.5,2.6,2.5h4.5v4.4
		c0,1.4,1.2,2.5,2.6,2.5h21.9c1.4,0,3.4-0.8,4.4-1.7l7.2-6.7c1-1,1.9-2.9,1.9-4.3l0-30.5C45,8.1,43.8,7,42.4,7z M7.2,9.7v34.4H2.7
		c-0.3,0-0.6-0.3-0.6-0.6V2.7C2.1,2.3,2.4,2,2.7,2h32.8c0.3,0,0.6,0.3,0.6,0.6v4.5H9.8C8.4,7.1,7.2,8.3,7.2,9.7z M41.6,42.9
		l-6.9,6.9c-0.1,0.1-0.3,0.3-0.5,0.4v-6c0-0.5,0.2-0.9,0.5-1.2c0.3-0.3,0.7-0.5,1.1-0.5h6.2C41.8,42.7,41.7,42.8,41.6,42.9z
		 M42.9,39.9c0,0.2,0,0.4-0.1,0.6h-7.3c-2,0-3.5,1.6-3.5,3.5v6.6c-0.2,0-0.5,0.1-0.6,0.1H9.4c-0.3,0-0.6-0.3-0.6-0.6V9.3
		c0-0.3,0.3-0.6,0.6-0.6h32.8c0.3,0,0.6,0.3,0.6,0.6L42.9,39.9z"/>
	<path class="st0" d="M34.7,15.5H16.5c-0.5,0-0.9,0.3-0.9,0.8s0.4,0.8,0.9,0.8h18.3c0.5,0,0.9-0.3,0.9-0.8S35.3,15.5,34.7,15.5z"/>
	<path class="st0" d="M34.7,29.5H16.5c-0.5,0-0.9,0.3-0.9,0.8s0.4,0.8,0.9,0.8h18.3c0.5,0,0.9-0.3,0.9-0.8
		C35.7,29.8,35.3,29.5,34.7,29.5z"/>
	<path class="st0" d="M27,35.7H16.5c-0.5,0-1,0.3-1,0.8s0.4,0.8,1,0.8H27c0.5,0,1-0.3,1-0.8S27.5,35.7,27,35.7z"/>
	<path class="st0" d="M34.7,21.7H16.5c-0.5,0-0.9,0.3-0.9,0.8s0.4,0.8,0.9,0.8h18.3c0.5,0,0.9-0.3,0.9-0.8S35.3,21.7,34.7,21.7z"/>
</g>
</svg>
