<?xml version="1.0" encoding="utf-8"?>
<!-- Generator: Adobe Illustrator 24.2.1, SVG Export Plug-In . SVG Version: 6.00 Build 0)  -->
<svg version="1.1" id="Layer_1" xmlns="http://www.w3.org/2000/svg" xmlns:xlink="http://www.w3.org/1999/xlink" x="0px" y="0px"
	 viewBox="0 0 20 20" style="enable-background:new 0 0 20 20;" xml:space="preserve">
<style type="text/css">
	.st0{fill:#006B3F;}
	.st1{filter:url(#Adobe_OpacityMaskFilter);}
	.st2{fill-rule:evenodd;clip-rule:evenodd;fill:#FFFFFF;}
	.st3{mask:url(#b_1_);}
	.st4{fill-rule:evenodd;clip-rule:evenodd;fill:#006B3F;}
</style>
<g>
	<g>
		<path id="a_1_" class="st0" d="M13.9,12.2H13l-0.3-0.3c1.1-1.3,1.7-2.9,1.7-4.7c0-4-3.2-7.2-7.2-7.2S0,3.2,0,7.2s3.2,7.2,7.2,7.2
			c1.8,0,3.4-0.7,4.7-1.7l0.3,0.3v0.9l5.6,5.5l1.7-1.7L13.9,12.2z M7.2,12.2c-2.8,0-5-2.2-5-5s2.2-5,5-5s5,2.2,5,5S10,12.2,7.2,12.2
			z"/>
	</g>
	<defs>
		<filter id="Adobe_OpacityMaskFilter" filterUnits="userSpaceOnUse" x="0" y="0" width="25" height="25">
			<feColorMatrix  type="matrix" values="1 0 0 0 0  0 1 0 0 0  0 0 1 0 0  0 0 0 1 0"/>
		</filter>
	</defs>
	<mask maskUnits="userSpaceOnUse" x="0" y="0" width="25" height="25" id="b_1_">
		<g class="st1">
			<path id="a_2_" class="st2" d="M13.9,12.2H13l-0.3-0.3c1.1-1.3,1.7-2.9,1.7-4.7c0-4-3.2-7.2-7.2-7.2S0,3.2,0,7.2s3.2,7.2,7.2,7.2
				c1.8,0,3.4-0.7,4.7-1.7l0.3,0.3v0.9l5.6,5.5l1.7-1.7L13.9,12.2z M7.2,12.2c-2.8,0-5-2.2-5-5s2.2-5,5-5s5,2.2,5,5
				S10,12.2,7.2,12.2z"/>
		</g>
	</mask>
	<g class="st3">
		<path class="st4" d="M0,0h25v25H0V0z"/>
	</g>
</g>
</svg>
