<?xml version="1.0" encoding="utf-8"?>
<!-- Generator: Adobe Illustrator 24.2.1, SVG Export Plug-In . SVG Version: 6.00 Build 0)  -->
<svg version="1.1" id="Layer_1" xmlns="http://www.w3.org/2000/svg" xmlns:xlink="http://www.w3.org/1999/xlink" x="0px" y="0px"
	 viewBox="0 0 66 45" style="enable-background:new 0 0 66 45;" xml:space="preserve">
<style type="text/css">
	.st0{fill:#006B3F;}
</style>
<g>
	<path class="st0" d="M59.9,0H5.4C2.4,0,0,2.5,0,5.5v32.8c0,3,2.4,5.5,5.4,5.5h54.4c3,0,5.4-2.5,5.4-5.5V5.5C65.3,2.5,62.9,0,59.9,0
		z M62.6,37.9c0,1.8-1.4,3.2-3.2,3.2H5.9c-1.8,0-3.2-1.4-3.2-3.2v-32c0-1.8,1.4-3.2,3.2-3.2h53.5c1.8,0,3.2,1.4,3.2,3.2V37.9z"/>
	<path class="st0" d="M60.5,5.2c-0.3-0.5-1-0.7-1.5-0.4L35.4,18.7c-1.7,1-3.8,1-5.5,0L6.3,4.9C5.8,4.6,5.2,4.7,4.9,5.3
		C4.6,5.7,4.7,6.4,5.2,6.7l23.6,13.8c2.4,1.4,5.4,1.4,7.7,0L60.1,6.7C60.6,6.4,60.8,5.7,60.5,5.2z"/>
	<path class="st0" d="M5.7,8.8c-0.6,0-1,0.5-1,1.1V38c0,0.6,0.5,1.1,1,1.1s1-0.5,1-1.1V9.8C6.7,9.2,6.3,8.8,5.7,8.8z"/>
	<path class="st0" d="M59.6,8.8c-0.6,0-1,0.5-1,1.1V38c0,0.6,0.5,1.1,1,1.1s1-0.5,1-1.1V9.8C60.6,9.2,60.2,8.8,59.6,8.8z"/>
</g>
</svg>
