<?xml version="1.0" encoding="utf-8"?>
<!-- Generator: Adobe Illustrator 24.2.1, SVG Export Plug-In . SVG Version: 6.00 Build 0)  -->
<svg version="1.1" id="Layer_1" xmlns="http://www.w3.org/2000/svg" xmlns:xlink="http://www.w3.org/1999/xlink" x="0px" y="0px"
	 viewBox="0 0 54.9 58.8" style="enable-background:new 0 0 54.9 58.8;" xml:space="preserve">
<style type="text/css">
	.st0{fill:none;}
	.st1{fill:#006B3F;}
	.st2{fill:#FFFFFF;}
	.st3{fill:#006B3F;stroke:#006B3F;stroke-width:0.25;stroke-miterlimit:10;}
</style>
<g>
	<defs>
		<rect id="SVGID_1_" x="-1009.1" y="-588.1" width="1920" height="1080"/>
	</defs>
	<clipPath id="SVGID_2_">
		<use xlink:href="#SVGID_1_"  style="overflow:visible;"/>
	</clipPath>
</g>
<circle class="st0" cx="-59" cy="-153" r="2.5"/>
<g>
	<path class="st0" d="M42.9,22c0,0-0.1-0.1-0.1-0.1v0.2L42.9,22z"/>
	<path class="st0" d="M40.9,30.9c-0.4,0.1-0.9,0.2-1.4,0.2c-1.7,0-3.4-0.7-4.6-2l-0.7,0.7C34.2,29.9,34.1,30,34,30
		c-0.1,0-0.1,0-0.2,0c-0.2-0.1-0.3-0.3-0.3-0.5v-2.1c0-0.3,0.2-0.5,0.5-0.5h2.1c0.2,0,0.4,0.1,0.5,0.3c0.1,0.2,0,0.4-0.1,0.6
		l-0.7,0.7c1,1,2.4,1.7,3.9,1.7c0.5,0,0.9-0.1,1.4-0.2v-0.6V29v-8.2c-0.5-0.2-1.1-0.3-1.6-0.3c-2.5,0-4.6,1.8-4.9,4.3
		c0,0.2-0.2,0.4-0.5,0.4c0,0,0,0-0.1,0c-0.3,0-0.5-0.3-0.4-0.6c0.4-2.9,2.9-5.1,5.9-5.1c0.6,0,1.1,0.1,1.6,0.2v-4.1
		c-0.5-0.1-1.1-0.2-1.7-0.2c-5.4,0-9.8,4.4-9.8,9.8c0,5.4,4.4,9.8,9.8,9.8c0.6,0,1.1-0.1,1.7-0.2V30.9z"/>
	<path class="st0" d="M40.9,9.5c0-1,0-1.4-1.1-1.4c0,0-31.7,0-31.9,0c-0.2,0-1.2-0.2-1.1,0.7c0-0.1,0,17.8,0,20.2h0c0,0,0,0.1,0,0.1
		c0,0.1,0,0.1,0,0.1h0c0,2.4,0,20.3,0,20.2c-0.1,0.9,0.9,0.7,1.1,0.7c0.1,0,11.3,0,20.4,0l0,0c0.8,0,1.6,0,1.6,0l0-6.3
		c-0.1-1.6,0.7-3.8,4-4c1.9,0.1,5,0.1,7.1,0v-2.2v-1.3c-0.5,0.1-1.1,0.1-1.6,0.1c-6.2,0-11.2-5-11.2-11.2s5-11.2,11.2-11.2
		c0.5,0,1.1,0.1,1.6,0.1v-1.3V9.5z M11.3,28.1c0-0.4,0.3-0.8,0.6-0.8h10.9c0.3,0,0.6,0.3,0.6,0.8c0,0.4-0.3,0.8-0.6,0.8H11.8
		C11.5,28.9,11.3,28.6,11.3,28.1z M12.2,33.6h10.5c0.5,0,1,0.3,1,0.8c0,0.4-0.4,0.8-1,0.8H12.2c-0.5,0-1-0.3-1-0.8
		C11.3,33.9,11.7,33.6,12.2,33.6z M23.7,20.7c0,0.4-0.3,0.8-0.6,0.8H12.3c-0.3,0-0.6-0.3-0.6-0.8c0-0.4,0.3-0.8,0.6-0.8h10.9
		C23.5,19.9,23.7,20.2,23.7,20.7z M29.4,14.9H12.1c-0.5,0-0.9-0.3-0.9-0.8c0-0.4,0.4-0.8,0.9-0.8h17.2c0.5,0,0.9,0.3,0.9,0.8
		C30.3,14.6,29.9,14.9,29.4,14.9z"/>
	<path class="st0" d="M31.9,43.8c0,0,0,5.9,0,5.9c0.6-0.2,5.5-5.3,7.8-7.7h-6.2C33.3,42,32,42.1,31.9,43.8z"/>
	<path class="st0" d="M49.1,25.4c0-4.2-2.6-7.7-6.3-9.1v4.4c0.3,0.2,0.6,0.4,0.8,0.6l0.9-0.9c0.2-0.2,0.4-0.2,0.6-0.1
		c0.2,0.1,0.3,0.3,0.3,0.5v2.1c0,0.3-0.2,0.5-0.5,0.5h-2.1c0,0,0,0,0,0v5.5c0.9-0.8,1.5-1.8,1.7-3.1c0-0.3,0.3-0.5,0.5-0.4
		c0.3,0,0.5,0.3,0.4,0.6c-0.2,1.8-1.2,3.2-2.6,4.1v4.4C46.4,33.1,49.1,29.5,49.1,25.4z"/>
	<path class="st1" d="M30.3,14.2c0-0.4-0.4-0.8-0.9-0.8H12.1c-0.5,0-0.9,0.3-0.9,0.8c0,0.4,0.4,0.8,0.9,0.8h17.2
		C29.9,14.9,30.3,14.6,30.3,14.2z"/>
	<path class="st1" d="M11.8,28.9h10.9c0.3,0,0.6-0.3,0.6-0.8c0-0.4-0.3-0.8-0.6-0.8H11.8c-0.3,0-0.6,0.3-0.6,0.8
		C11.3,28.6,11.5,28.9,11.8,28.9z"/>
	<path class="st1" d="M12.2,35.1h10.5c0.5,0,1-0.3,1-0.8c0-0.4-0.4-0.8-1-0.8H12.2c-0.5,0-1,0.3-1,0.8
		C11.3,34.8,11.7,35.1,12.2,35.1z"/>
	<path class="st1" d="M12.3,19.9c-0.3,0-0.6,0.3-0.6,0.8c0,0.4,0.3,0.8,0.6,0.8h10.9c0.3,0,0.6-0.3,0.6-0.8c0-0.4-0.3-0.8-0.6-0.8
		H12.3z"/>
	<path class="st1" d="M6.9,52.2c0,0-0.1,0-0.1,0H6.7L6.9,52.2z"/>
	<polygon class="st1" points="4.8,50.3 4.8,50.1 4.8,50.1 	"/>
	<path class="st1" d="M40.9,40c-2.1,0.1-5.3,0.1-7.1,0c-3.3,0.1-4,2.4-4,4l0,6.3c0,0-0.8,0-1.6,0l0,0c-9.1,0-20.3,0-20.4,0
		c-0.2,0-1.2,0.2-1.1-0.7c0,0.1,0-17.8,0-20.2h0c0,0,0-0.1,0-0.1c0-0.1,0-0.1,0-0.1h0c0-2.4,0-20.3,0-20.2C6.7,7.9,7.7,8.1,7.9,8.1
		c0.2,0,31.9,0,31.9,0c1.1,0,1.2,0.4,1.1,1.4v3.6c0.6,0.1,1.3,0.2,1.9,0.4V8.2c0-1.1-0.9-2-2-2h-34c-1.1,0-2,0.9-2,2v41.9
		c0,1.2,0.8,2.1,2,2.1h21.9c0.1,0,0.3,0,0.3,0c0.1,0,0.2,0,0.3,0h0.9l0.1-0.1c2-0.2,3.2-1.1,4.5-2.5l6.3-6.1
		c0.4-0.4,1.8-2.2,1.8-3.6l0,0v-0.1c0,0,0,0,0,0c0,0,0,0,0,0v-2.3c-0.6,0.2-1.2,0.3-1.9,0.4V40z M31.9,49.7c0,0,0-5.9,0-5.9
		c0-1.7,1.3-1.7,1.6-1.8h6.2C37.4,44.3,32.5,49.5,31.9,49.7z"/>
	<path class="st2" d="M42.8,20.7v-4.4c-0.6-0.2-1.2-0.4-1.9-0.5v4.1C41.6,20,42.2,20.3,42.8,20.7z"/>
	<path class="st2" d="M42.8,30.1c-0.6,0.4-1.2,0.6-1.9,0.8V35c0.6-0.1,1.3-0.3,1.9-0.5V30.1z"/>
	<path class="st2" d="M42.3,23.1c-0.1-0.2,0-0.4,0.1-0.6l0.4-0.4v-0.2c-0.5-0.5-1.2-0.8-1.9-1V29v0.3v0.6c0.7-0.2,1.3-0.5,1.9-1
		v-5.5C42.6,23.4,42.4,23.3,42.3,23.1z"/>
	<path class="st2" d="M40.9,37.8c0.6-0.1,1.3-0.2,1.9-0.4v-1.3c-0.6,0.2-1.2,0.3-1.9,0.4V37.8z"/>
	<path class="st2" d="M40.9,14.4c0.6,0.1,1.3,0.2,1.9,0.4v-1.3c-0.6-0.2-1.2-0.3-1.9-0.4V14.4z"/>
	<path class="st1" d="M42.8,14.8c-0.6-0.2-1.2-0.3-1.9-0.4c-0.5-0.1-1.1-0.1-1.6-0.1c-6.2,0-11.2,5-11.2,11.2s5,11.2,11.2,11.2
		c0.5,0,1.1-0.1,1.6-0.1c0.6-0.1,1.3-0.2,1.9-0.4c4.5-1.5,7.7-5.7,7.7-10.7S47.3,16.3,42.8,14.8z M42.8,34.5
		c-0.6,0.2-1.2,0.4-1.9,0.5c-0.5,0.1-1.1,0.2-1.7,0.2c-5.4,0-9.8-4.4-9.8-9.8c0-5.4,4.4-9.8,9.8-9.8c0.6,0,1.1,0.1,1.7,0.2
		c0.6,0.1,1.3,0.3,1.9,0.5c3.7,1.4,6.3,5,6.3,9.1C49.1,29.5,46.4,33.1,42.8,34.5z"/>
	<path class="st3" d="M44,22.4c-0.2,0.2-0.5,0.2-0.7,0c-0.1-0.1-0.3-0.3-0.4-0.4l-0.1,0.1l-0.4,0.4c-0.2,0.2-0.2,0.4-0.1,0.6
		c0.1,0.2,0.3,0.3,0.5,0.3c0,0,0,0,0,0h2.1c0.3,0,0.5-0.2,0.5-0.5v-2.1c0-0.2-0.1-0.4-0.3-0.5c-0.2-0.1-0.4,0-0.6,0.1l-0.9,0.9
		c0.2,0.1,0.3,0.3,0.4,0.4C44.2,21.9,44.2,22.3,44,22.4z"/>
	<path class="st3" d="M34.9,28.2c0.2-0.2,0.5-0.2,0.7,0c0,0.1,0.1,0.1,0.1,0.1l0.7-0.7c0.2-0.2,0.2-0.4,0.1-0.6
		c-0.1-0.2-0.3-0.3-0.5-0.3H34c-0.3,0-0.5,0.2-0.5,0.5v2.1c0,0.2,0.1,0.4,0.3,0.5c0.1,0,0.1,0,0.2,0c0.1,0,0.3-0.1,0.4-0.2l0.7-0.7
		c-0.1-0.1-0.1-0.1-0.2-0.2C34.6,28.7,34.7,28.4,34.9,28.2z"/>
	<path class="st3" d="M40.9,19.8c-0.5-0.1-1.1-0.2-1.6-0.2c-3,0-5.5,2.2-5.9,5.1c0,0.3,0.2,0.5,0.4,0.6c0,0,0,0,0.1,0
		c0.2,0,0.5-0.2,0.5-0.4c0.3-2.4,2.4-4.3,4.9-4.3c0.6,0,1.1,0.1,1.6,0.3c0.7,0.2,1.3,0.6,1.9,1c0,0,0.1,0.1,0.1,0.1
		c0.1,0.1,0.3,0.3,0.4,0.4c0.2,0.2,0.5,0.2,0.7,0c0.2-0.2,0.2-0.5,0-0.7c-0.1-0.2-0.3-0.3-0.4-0.4c-0.3-0.2-0.5-0.4-0.8-0.6
		C42.2,20.3,41.6,20,40.9,19.8z"/>
	<path class="st3" d="M40.9,29.9c-0.4,0.1-0.9,0.2-1.4,0.2c-1.5,0-2.9-0.6-3.9-1.7c0,0-0.1-0.1-0.1-0.1c-0.2-0.2-0.5-0.2-0.7,0
		c-0.2,0.2-0.2,0.5,0,0.7c0.1,0.1,0.1,0.1,0.2,0.2c1.2,1.2,2.9,2,4.6,2c0.5,0,0.9-0.1,1.4-0.2c0.7-0.2,1.3-0.4,1.9-0.8
		c1.4-0.9,2.4-2.4,2.6-4.1c0-0.3-0.2-0.5-0.4-0.6c-0.3,0-0.5,0.2-0.5,0.4c-0.2,1.2-0.8,2.3-1.7,3.1C42.2,29.4,41.6,29.7,40.9,29.9z"
		/>
</g>
</svg>
