<?xml version="1.0" encoding="utf-8"?>
<!-- Generator: Adobe Illustrator 24.2.1, SVG Export Plug-In . SVG Version: 6.00 Build 0)  -->
<svg version="1.1" id="Layer_1" xmlns="http://www.w3.org/2000/svg" xmlns:xlink="http://www.w3.org/1999/xlink" x="0px" y="0px"
	 viewBox="0 0 45 53" style="enable-background:new 0 0 45 53;" xml:space="preserve">
<style type="text/css">
	.st0{fill:#006B3F;}
</style>
<path class="st0" d="M22.3,34.9c0,6.3,5.1,11.4,11.4,11.4S45,41.2,45,34.9c0-4.1-2.2-7.7-5.4-9.7V11c0-0.3-0.1-0.5-0.3-0.7
	C28.5-0.5,29.2,0.1,28.8,0c-0.1,0,1.2,0-25.4,0C1.6,0,0,1.6,0,3.5v45.1c0,1.9,1.6,3.5,3.5,3.5h32.7c1.9,0,3.5-1.6,3.5-3.5
	c0-0.5-0.4-0.9-0.9-0.9s-0.9,0.4-0.9,0.9c0,1-0.8,1.7-1.7,1.7H3.5c-1,0-1.7-0.8-1.7-1.7V3.5c0-1,0.8-1.7,1.7-1.7h24.3v6.6
	c0,1.9,1.6,3.5,3.5,3.5h6.6v12.5c-1.4-0.6-2.9-0.9-4.5-0.8v-6.2c0-1.4-1.2-2.6-2.6-2.6H8.9c-1.4,0-2.6,1.2-2.6,2.6v11.1
	c0,1.4,1.2,2.6,2.6,2.6h11.4c0.5,0,0.9-0.4,0.9-0.9s-0.4-0.9-0.9-0.9h-3.9v-5.5h7.8c0.5,0,0.9-0.4,0.9-0.9v-6.4h5.7
	c0.5,0,0.9,0.4,0.9,0.9v6.4C26.3,24.7,22.3,29.4,22.3,34.9z M31.2,10.1c-1,0-1.8-0.8-1.8-1.7V3l7.6,7.1L31.2,10.1L31.2,10.1z
	 M9,16.7h5.7v5.1H8.1v-4.3C8.1,17,8.5,16.7,9,16.7z M14.7,29.3H9c-0.5,0-0.9-0.4-0.9-0.9v-4.7h6.6V29.3z M23.3,21.7h-7.1v-5.1h7.1
	V21.7z M43.5,34.9c0,5.3-4.3,9.6-9.6,9.6s-9.6-4.3-9.6-9.6s4.3-9.6,9.6-9.6S43.5,29.6,43.5,34.9z M6.1,35.9c0-0.6,0.4-1,0.9-1h8.8
	c0.5,0,0.9,0.5,0.9,1s-0.4,1-0.9,1H7C6.5,36.9,6.1,36.5,6.1,35.9z M17.8,41.5c0.5,0,0.9,0.3,0.9,0.8S18.3,43,17.8,43H7
	c-0.5,0-0.9-0.3-0.9-0.8s0.4-0.8,0.9-0.8H17.8z M34.6,28.1v1.7l0.3,0c1.6,0.3,1.6,0.3,2.5,1.6c0.7,0.9,0.7,0.9,0.7,1.9H36l-0.1-0.2
	c-0.2-0.6-0.2-0.6-0.5-0.9c-0.3-0.4-0.3-0.4-0.8-0.5v6.7l0.2-0.1c0.4-0.2,0.4-0.2,0.7-0.5c0.3-0.4,0.3-0.4,0.5-1.2h2.1L38,36.8
	c-0.3,1.5-0.3,1.5-1.4,2.4c-0.8,0.8-0.8,0.8-2,1V42h-1.8v-1.8l-0.2,0c-1.3-0.3-1.3-0.3-2.2-1.3c-1.2-1.4-1.2-1.4-1.2-3.8
	c0-2.6,0-2.6,1.4-4.1c1-1,1-1,2.3-1.2v-1.7L34.6,28.1z M32.8,31.7l-0.2,0.1c-0.4,0.2-0.4,0.2-0.7,0.7c-0.7,0.9-0.7,0.9-0.7,2.6
	c0,1.7,0,1.7,0.7,2.5c0.4,0.4,0.4,0.4,0.9,0.7V31.7z"/>
</svg>
