<?xml version="1.0" encoding="utf-8"?>
<!-- Generator: Adobe Illustrator 24.2.1, SVG Export Plug-In . SVG Version: 6.00 Build 0)  -->
<svg version="1.1" id="Layer_1" xmlns="http://www.w3.org/2000/svg" xmlns:xlink="http://www.w3.org/1999/xlink" x="0px" y="0px"
	 viewBox="0 0 45 51" style="enable-background:new 0 0 45 51;" xml:space="preserve">
<style type="text/css">
	.st0{fill:#006B3F;}
</style>
<g>
	<ellipse class="st0" cx="22.5" cy="31.6" rx="1.7" ry="1.5"/>
	<path class="st0" d="M17.2,26.3c-0.6,0.5-0.6,1.4,0,2c0.6,0.5,1.5,0.5,2.1,0c1.7-1.6,4.6-1.6,6.3,0c0.3,0.3,0.7,0.4,1.1,0.4
		s0.8-0.1,1.1-0.4c0.6-0.5,0.6-1.4,0-2C24.9,23.5,20.1,23.5,17.2,26.3z"/>
	<path class="st0" d="M22.5,18.3c-3.5,0-6.8,1.4-9.2,3.9c-0.6,0.6-0.6,1.5,0,2.1c0.6,0.6,1.5,0.6,2,0c1.9-2,4.5-3,7.2-3
		c2.7,0,5.3,1.1,7.2,3c0.3,0.3,0.7,0.4,1,0.4s0.7-0.1,1-0.4c0.6-0.6,0.6-1.5,0-2.1C29.3,19.7,26,18.3,22.5,18.3z"/>
	<path class="st0" d="M42.1,33.2c-1.9-1-3.1-2.9-3.1-5v-5.6c0-7.5-5.1-13.8-12-15.8V4.5C27,2,25,0,22.5,0S18,2,18,4.5v2.3
		c-6.9,2-12,8.3-12,15.8v5.6c0,2.1-1.2,4.1-3.1,5C1.1,34,0,35.8,0,37.8C0,40.7,2.3,43,5.2,43h7.9c0.7,4.5,4.7,8,9.4,8
		c4.7,0,8.7-3.5,9.4-8h7.9c2.9,0,5.2-2.3,5.2-5.2C45,35.8,43.9,34,42.1,33.2z M20.8,4.6c0-0.9,0.8-1.6,1.7-1.6s1.7,0.7,1.7,1.6v1.9
		c-0.6,0-1.1-0.1-1.7-0.1s-1.2,0-1.7,0.1V4.6z M22.5,48c-3,0-5.5-2.1-6.2-4.9h12.4C28,45.9,25.5,48,22.5,48z M39.8,40.1H5.2
		c-1.2,0-2.2-1-2.2-2.2c0-0.8,0.5-1.6,1.2-2c3-1.5,4.8-4.5,4.8-7.8v-5.6C9,15,15,8.9,22.5,8.9S36,15,36,22.5v5.6
		c0,3.3,1.8,6.3,4.8,7.8c0.8,0.4,1.2,1.1,1.2,2C42,39.1,41,40.1,39.8,40.1z"/>
</g>
</svg>
